<?xml version="1.0" encoding="UTF-8"?>
<!DOCTYPE svg PUBLIC "-//W3C//DTD SVG 1.1//EN" "http://www.w3.org/Graphics/SVG/1.1/DTD/svg11.dtd">
<!-- Creator: CorelDRAW X6 -->
<svg xmlns="http://www.w3.org/2000/svg" xml:space="preserve" width="88px" height="88px" version="1.1" style="shape-rendering:geometricPrecision; text-rendering:geometricPrecision; image-rendering:optimizeQuality; fill-rule:evenodd; clip-rule:evenodd"
viewBox="0 0 15 15"
 xmlns:xlink="http://www.w3.org/1999/xlink">
 <defs>
  <style type="text/css">
   <![CDATA[
    .fil0 {fill:#004D44}
   ]]>
  </style>
 </defs>
 <g id="Layer_x0020_1">
  <metadata id="CorelCorpID_0Corel-Layer"/>
  <g id="_792097232">
   <g>
    <path class="fil0" d="M3 11c-2,-2 -2,-5 0,-7l-1 -1c-3,2 -3,6 0,9l1 -1z"/>
    <path class="fil0" d="M3 2l1 1c2,-2 5,-2 7,0l1 -1c-3,-3 -7,-3 -9,0z"/>
    <path class="fil0" d="M10 4c0,0 0,0 0,0 -2,-1 -4,-1 -5,0 0,0 -1,0 -1,0 0,0 0,1 0,1 -1,1 -1,3 0,5 0,0 0,0 0,0 0,0 1,1 1,1 1,1 3,1 5,0 0,0 0,-1 0,-1 0,0 1,0 1,0 1,-2 1,-4 0,-5 0,0 -1,-1 -1,-1z"/>
    <path class="fil0" d="M4 12l-1 1c2,2 6,2 9,0l-1 -1c-2,1 -5,1 -7,0z"/>
    <path class="fil0" d="M12 4c1,2 1,5 0,7l1 1c2,-3 2,-7 0,-9l-1 1z"/>
   </g>
  </g>
 </g>
</svg>
