<?xml version="1.0" encoding="UTF-8"?>
<svg xmlns="http://www.w3.org/2000/svg" xmlns:xlink="http://www.w3.org/1999/xlink" viewBox="0 0 50 50" version="1.1" width="30px" height="30px">
   <g id="surface1">
    <path class="fil0" d="M5 9c0,0 0,0 0,0l0 0 0 0c0,0 0,0 0,0l0 0c0,0 0,0 0,0l0 1c0,0 0,0 0,0l1 0c0,0 0,0 0,0l0 -1c0,0 0,0 0,0l0 0c0,0 0,0 0,0l0 0 0 0c0,0 0,0 0,0l-1 0zm0 0l1 0c0,0 0,0 0,0l0 0 -1 0 0 0c0,0 0,0 0,0zm0 0l1 0c0,0 0,0 0,0l0 0 0 0c0,0 0,0 0,0l0 0c0,0 0,0 0,0l-1 0c0,0 0,0 0,0l0 0c0,0 0,0 0,0l0 0 0 0c0,0 0,0 0,0zm0 0l0 0 0 0c0,0 0,0 0,0l0 0 0 0 0 0c0,0 0,0 0,0l0 0zm1 0l0 0 0 0c0,0 0,0 0,0l0 0 0 0 0 0c0,0 0,0 0,0l0 0zm-1 0l0 0c0,0 0,0 0,0l0 0c0,0 0,0 0,0l1 0c0,0 0,0 0,0l0 0c0,0 0,0 0,0l0 0 0 1c0,0 0,0 0,0l-1 0c0,0 0,0 0,0l0 -1z"/>
   </g>
  </g>
  <path class="fil1" d="M5 8l0 0c0,0 0,0 0,0 0,0 0,0 0,0 0,0 0,0 0,0 0,0 0,0 0,0 0,0 0,0 0,0l0 0c0,0 0,0 0,0 0,0 0,-1 0,-1 0,0 0,0 0,0 0,0 0,0 0,0 0,0 0,0 0,0 0,0 0,0 0,0 0,0 0,0 0,0l0 0c0,0 0,0 0,0 0,0 0,0 0,0 0,0 0,0 0,0 0,0 0,0 0,0l0 0c0,0 0,1 0,1 0,0 0,0 0,0 0,0 0,0 0,0 0,0 0,0 0,0 0,0 0,0 0,0 0,0 0,0 0,0z"/>
  <path id="1" class="fil1" d="M5 8c0,0 0,0 0,0 0,0 0,0 0,0 0,0 0,-1 0,-1 0,0 0,0 0,0 0,0 0,0 0,0 0,0 0,1 0,1 0,0 0,0 0,0 0,0 0,0 0,0zm0 0c0,0 0,0 0,0 0,0 0,0 0,-1 0,0 0,0 0,0 0,0 0,0 0,0 0,1 0,1 0,1 0,0 0,0 0,0 0,0 0,0 0,0z"/>
  <path id="2" class="fil1" d="M6 8l0 0c0,0 0,0 0,0 0,0 0,0 0,0 0,0 0,0 0,0 -1,0 -1,0 -1,0 0,0 0,-1 1,-1 0,0 0,0 0,0 0,0 0,0 0,1l0 0c0,-1 0,-1 0,-1 0,0 0,0 0,1 0,0 0,0 0,0 0,0 0,0 0,0 0,0 0,0 0,0 0,0 0,0 0,0z"/>
  <path id="3" class="fil1" d="M6 7l0 0 0 0 0 0 0 0zm0 1l0 0 0 -1 0 0 0 1z"/>
  <path id="4" class="fil1" d="M6 8l0 0c0,0 0,0 0,0 0,0 0,0 0,0 0,0 0,0 0,0 0,0 0,0 0,0 0,0 0,0 0,0 0,0 0,0 0,0l0 0c0,-1 0,-1 0,-1 0,0 0,0 0,1l0 0c0,-1 0,-1 0,-1 0,0 0,0 0,0 0,0 0,0 0,0 0,0 0,0 0,0 0,0 0,0 0,0 0,0 0,1 0,1l0 0c0,0 0,0 0,0zm0 0c0,0 0,0 0,0 0,0 0,0 0,0 0,0 0,0 0,0 0,0 0,0 0,0 0,0 0,0 0,0l0 0z"/>
  <polygon id="5" class="fil1" points="6,8 6,8 6,7 6,7 "/>
  <polygon id="6" class="fil1" points="7,7 7,8 7,8 7,7 7,8 7,8 6,7 7,7 7,8 7,7 7,7 7,8 7,7 "/>
  <path id="7" class="fil1" d="M7 8l0 0c0,0 0,0 0,0 0,0 0,0 0,0 0,0 0,0 0,0 0,0 0,0 0,0 0,0 0,-1 0,-1 0,0 0,0 0,0 0,0 0,0 0,0 0,0 0,1 0,1l0 0 0 0c0,0 0,0 0,0 0,0 0,0 0,0 0,0 0,0 0,0 0,0 0,0 0,0zm0 0c0,0 0,-1 0,-1 0,0 0,0 0,0 0,0 0,0 0,0 0,0 0,1 0,1l0 0z"/>
  <polygon id="8" class="fil1" points="8,8 7,8 7,7 8,7 "/>
  <path id="9" class="fil1" d="M8 8l0 0 0 -1 0 0 0 0 0 0 0 0c0,0 0,0 0,0 0,0 0,0 0,0 0,0 0,0 0,0l0 0c0,0 0,0 0,0 0,0 0,0 0,0 0,0 0,0 0,0 0,0 0,0 0,0l0 0 0 0 0 0 0 1z"/>
  <path id="10" class="fil1" d="M8 8l0 0c0,0 0,0 0,0 0,0 0,0 0,0 0,0 0,0 0,0 0,0 0,0 0,0 0,0 0,0 0,0 0,0 0,0 0,0l0 0c0,-1 0,-1 0,-1 0,0 0,0 0,1l0 0c0,-1 0,-1 0,-1 0,0 0,0 0,0 0,0 0,0 0,0 0,0 0,0 0,0 0,0 0,0 0,0 0,0 0,1 0,1l0 0c0,0 0,0 0,0zm0 0c0,0 0,0 0,0 0,0 0,0 0,0 0,0 0,0 0,0 0,0 0,0 0,0 0,0 0,0 0,0l0 0z"/>
  <path id="11" class="fil1" d="M8 8l0 0 0 -1 0 0 0 0c0,0 0,0 0,0 0,0 0,0 0,0 0,0 0,0 0,0l0 0c0,0 0,0 0,1 0,0 0,0 0,0l0 0z"/>
  <path id="12" class="fil1" d="M9 8l0 0c0,0 0,0 0,0 0,0 0,0 0,0 0,0 -1,0 -1,0 0,0 0,0 0,0 0,0 0,-1 0,-1 0,0 1,0 1,0 0,0 0,0 0,0 0,0 0,1 0,1l0 0 -1 0c0,0 0,0 0,0 0,0 1,0 1,0 0,0 0,0 0,0 0,0 0,0 0,0zm0 0c0,0 0,-1 0,-1 0,0 0,0 0,0 0,0 0,0 0,0 -1,0 -1,1 -1,1l1 0z"/>
  <path id="13" class="fil1" d="M9 8l0 0 0 0 0 0 0 0 0 0 0 -1 0 0 0 1zm0 0l0 -1 0 1 0 0z"/>
  <path id="14" class="fil1" d="M9 8l0 0 0 -1 0 0 0 0c0,0 0,0 0,0 0,0 0,0 0,0 0,0 0,1 0,1 0,0 0,0 0,0 0,0 0,0 0,0 0,0 0,0 0,0l0 0zm0 0c0,0 0,0 0,0 0,0 0,0 0,0 0,0 0,0 0,0 0,0 0,0 0,0 0,0 0,0 0,0 0,-1 0,-1 0,-1 0,0 0,0 0,0 0,1 0,1 0,1l0 0z"/>
  <path id="15" class="fil1" d="M10 8l0 0 0 -1 0 0 0 0c0,0 0,0 0,0 0,0 0,0 0,0 0,0 0,1 0,1 0,0 0,0 0,0 0,0 0,0 0,0 0,0 0,0 0,0l0 0zm0 0c0,0 0,0 0,0 0,0 0,0 0,0 0,0 0,0 0,0 0,0 0,0 0,0 0,0 0,0 0,0 0,-1 0,-1 0,-1 0,0 0,0 0,0 0,1 0,1 0,1l0 0z"/>
  <path id="16" class="fil1" d="M10 8l0 0c0,0 0,0 0,0 0,0 0,0 0,0 0,0 0,0 0,0 0,0 0,0 0,0 0,0 0,-1 0,-1 0,0 0,0 0,0 0,0 0,0 0,0 0,0 0,1 0,1l0 0 0 0c0,0 0,0 0,0 0,0 0,0 0,0 0,0 0,0 0,0 0,0 0,0 0,0zm0 0c0,0 0,-1 0,-1 0,0 0,0 0,0 0,0 0,0 0,0 0,0 0,1 0,1l0 0z"/>
  <path id="17" class="fil1" d="M11 8l-1 0c0,0 0,0 0,0 0,0 0,0 0,0 0,0 0,0 0,0 0,0 0,0 0,0 0,0 0,0 0,0 0,0 0,0 0,0l0 0c0,-1 0,-1 0,-1 0,0 0,0 0,1l0 0c0,-1 0,-1 0,-1 0,0 0,0 0,0 0,0 0,0 0,0 0,0 1,0 1,0 0,0 0,0 0,0 0,0 0,1 0,1l0 0c0,0 0,0 0,0zm-1 0c0,0 0,0 0,0 0,0 0,0 0,0 0,0 0,0 0,0 0,0 0,0 0,0 0,0 0,0 0,0l0 0z"/>
  <polygon id="18" class="fil1" points="11,8 11,8 11,7 11,7 "/>
  <polygon id="19" class="fil1" points="11,8 11,8 11,8 11,8 "/>
  <path id="20" class="fil1" d="M11 7l0 0 0 0 0 0 0 0zm0 1l0 0 0 -1 0 0 0 1z"/>
  <path id="21" class="fil1" d="M11 8l0 0c0,0 0,0 0,0 0,0 0,0 0,0 0,0 0,0 0,0 0,0 0,0 0,0 0,0 0,-1 0,-1 0,0 0,0 0,0 0,0 0,0 0,0 0,0 0,1 0,1l0 0 0 0c0,0 0,0 0,0 0,0 0,0 0,0 0,0 0,0 0,0 0,0 0,0 0,0zm0 0c0,0 0,-1 0,-1 0,0 0,0 0,0 0,0 0,0 0,0 0,0 0,1 0,1l0 0z"/>
 </g>
</svg>
